<svg id="visual" viewBox="0 0 500 1000" width="500" height="1000" xmlns="http://www.w3.org/2000/svg" xmlns:xlink="http://www.w3.org/1999/xlink" version="1.1"><path d="M234 0L243.8 27.8C253.7 55.7 273.3 111.3 267.8 166.8C262.3 222.3 231.7 277.7 219 333.2C206.3 388.7 211.7 444.3 232.3 500C253 555.7 289 611.3 292.3 666.8C295.7 722.3 266.3 777.7 251.2 833.2C236 888.7 235 944.3 234.5 972.2L234 1000L0 1000L0 972.2C0 944.3 0 888.7 0 833.2C0 777.7 0 722.3 0 666.8C0 611.3 0 555.7 0 500C0 444.3 0 388.7 0 333.2C0 277.7 0 222.3 0 166.8C0 111.3 0 55.7 0 27.8L0 0Z" fill="#ffffff"></path></svg>
